# xmcd
#
# Track frame offsets:
#	150
#	12031
#	33784
#	52119
#	67217
#	78401
#	91718
#	103922
#	115955
#	133517
#	149740
#	168899
#
# Disc length: 2463 seconds
# Revision: 1
# Processed by: cddbd v1.5.2PL0 Copyright (c) Steve Scherf et al.
# Submitted via: dBpowerAMP V12.0
#
DISCID=a1099d0c
DTITLE=Robyn Young - Written Reflections
DYEAR=2001
DGENRE=Country
TTITLE0=Three Sheets
TTITLE1=The Flame
TTITLE2=Is He There
TTITLE3=The Singing Sheriff
TTITLE4=Love Bandit
TTITLE5=Nowhere Fast
TTITLE6=The Blame
TTITLE7=Young, Fun Foolish
TTITLE8=Imagination
TTITLE9=Love Struck
TTITLE10=Take Me There Tonight
TTITLE11=Side By Side
EXTD=
EXTT0=
EXTT1=
EXTT2=
EXTT3=
EXTT4=
EXTT5=
EXTT6=
EXTT7=
EXTT8=
EXTT9=
EXTT10=
EXTT11=
PLAYORDER=
